<svg width="321" height="183" viewBox="0 0 321 183" fill="none" xmlns="http://www.w3.org/2000/svg">
<g clip-path="url(#clip0)">
<path fill-rule="evenodd" clip-rule="evenodd" d="M43.614 182.178V149.896H27.6984L12.1961 173.747V149.896H0.621094V182.178H14.6765L32.039 156.064V182.178H43.614Z" fill="#1B4F97"/>
<path fill-rule="evenodd" clip-rule="evenodd" d="M46.3008 181.766V177.037C50.0213 178.065 53.5352 178.682 56.8423 178.682C59.5294 178.682 62.0097 178.27 64.0767 177.242C66.1437 176.214 67.1772 174.981 67.1772 173.541C67.1772 172.513 66.5571 171.485 65.5236 170.457C64.4901 169.429 62.8365 168.812 60.5629 168.401C58.2892 167.99 55.8088 167.784 53.1218 167.784H51.6749V163.466H52.5017C57.049 163.466 60.5629 162.849 62.8365 161.821C65.1102 160.793 66.3504 159.354 66.3504 157.709C66.3504 156.475 65.7303 155.447 64.2834 154.83C63.0432 154.008 60.9762 153.596 57.8758 153.596C54.7753 153.596 51.0548 154.008 46.9209 155.036V150.512C50.0213 149.895 52.5017 149.484 54.362 149.484C56.2222 149.484 58.0825 149.278 59.9428 149.278C63.87 149.278 67.1772 149.69 69.6575 150.306C72.1379 150.923 73.9981 151.951 75.445 153.185C76.8919 154.419 77.512 155.652 77.512 157.297C77.512 158.942 76.6852 160.382 74.8249 161.821C73.1714 163.26 69.8642 164.288 64.9035 165.111C70.2776 165.933 73.9981 167.167 76.0651 168.812C78.1321 170.457 79.1656 172.102 79.1656 173.747C79.1656 175.392 78.3388 177.037 76.4785 178.476C74.8249 179.915 72.1379 180.944 68.8307 181.972C65.5236 182.794 61.803 183.205 57.6691 183.205C56.4289 183.205 55.1887 183.205 53.7419 183C52.295 183 51.0548 182.794 50.0213 182.588C49.4012 182.383 47.9544 182.177 46.3008 181.766Z" fill="#1B4F97"/>
<path fill-rule="evenodd" clip-rule="evenodd" d="M103.143 178.682C105.21 178.682 107.07 178.271 108.517 177.448C110.17 176.626 111.41 175.392 112.237 173.747C113.064 172.102 113.684 169.429 113.684 166.139C113.684 162.644 113.271 160.176 112.444 158.531C111.617 156.886 110.377 155.652 108.723 154.83C107.07 154.008 105.21 153.596 103.143 153.596C101.076 153.596 99.2153 154.008 97.7684 154.83C96.1149 155.652 95.0814 156.886 94.0479 158.531C93.2211 160.176 92.8077 162.849 92.8077 166.139C92.8077 169.635 93.2211 172.102 94.0479 173.747C94.8747 175.392 96.1149 176.626 97.7684 177.448C99.2153 178.271 101.076 178.682 103.143 178.682ZM103.143 183C95.4948 183 89.914 181.56 85.9867 178.476C82.2662 175.392 80.1992 171.279 80.1992 166.139C80.1992 160.999 82.0595 156.886 85.9867 153.802C89.7073 150.718 95.4948 149.278 103.143 149.278C110.79 149.278 116.371 150.718 120.298 153.802C124.019 156.886 126.086 160.999 126.086 166.139C126.086 171.279 124.226 175.392 120.298 178.476C116.371 181.355 110.584 183 103.143 183Z" fill="#1B4F97"/>
<path fill-rule="evenodd" clip-rule="evenodd" d="M150.475 149.896L163.084 174.364L155.229 182.178L142.621 157.915L128.772 182.178H120.711L139.107 149.896H150.475Z" fill="#1B4F97"/>
<path fill-rule="evenodd" clip-rule="evenodd" d="M189.541 182.178V154.213H185.82C181.893 154.213 179.413 154.419 178.379 154.625C177.346 155.036 176.519 155.447 175.899 156.064C175.279 156.681 175.072 157.503 175.072 158.326C175.072 159.56 175.485 160.588 176.519 161.616C177.552 162.644 178.999 163.466 180.859 163.878C182.1 164.289 183.546 164.494 184.993 164.494V169.018L170.938 182.178H159.156L173.832 167.373C171.145 166.551 169.284 165.728 167.838 164.7C166.391 163.672 165.357 162.644 164.53 161.616C163.704 160.382 163.29 159.148 163.29 157.915C163.29 155.653 164.53 153.597 167.217 152.157C169.904 150.718 173.832 149.896 179.206 149.896H200.909V182.178H189.541Z" fill="#1B4F97"/>
<path fill-rule="evenodd" clip-rule="evenodd" d="M213.932 182.178V154.213H202.977V149.896H236.255V154.213H225.3V182.178H213.932Z" fill="#1B4F97"/>
<path fill-rule="evenodd" clip-rule="evenodd" d="M256.098 178.682C258.165 178.682 260.025 178.271 261.472 177.448C263.125 176.626 264.366 175.392 265.192 173.747C266.019 172.102 266.639 169.429 266.639 166.139C266.639 162.644 266.226 160.176 265.399 158.531C264.572 156.886 263.332 155.652 261.678 154.83C260.025 154.008 258.165 153.596 256.098 153.596C254.031 153.596 252.17 154.008 250.724 154.83C249.07 155.652 248.036 156.886 247.003 158.531C246.176 160.176 245.763 162.849 245.763 166.139C245.763 169.635 246.176 172.102 247.003 173.747C247.83 175.392 249.07 176.626 250.724 177.448C252.17 178.271 254.031 178.682 256.098 178.682ZM256.098 183C248.45 183 242.869 181.56 238.942 178.476C235.221 175.392 233.154 171.279 233.154 166.139C233.154 160.999 235.015 156.886 238.942 153.802C242.662 150.718 248.45 149.278 256.098 149.278C263.745 149.278 269.326 150.718 273.253 153.802C276.974 156.886 279.041 160.999 279.041 166.139C279.041 171.279 277.181 175.392 273.253 178.476C269.326 181.355 263.539 183 256.098 183Z" fill="#1B4F97"/>
<path fill-rule="evenodd" clip-rule="evenodd" d="M292.476 154.007V181.971H281.107V149.689H303.224C309.425 149.689 313.972 150.512 316.659 151.951C319.346 153.391 320.793 155.652 320.793 158.325C320.793 160.587 319.966 162.438 318.313 163.877C316.659 165.522 314.179 166.756 310.872 167.578C307.565 168.401 302.811 169.018 296.816 169.018V164.7C298.883 164.7 300.537 164.494 302.397 164.083C304.464 163.671 306.118 162.849 307.151 161.821C308.185 160.793 308.598 159.559 308.598 158.325C308.598 157.503 308.391 156.68 307.771 156.064C307.151 155.447 306.324 154.83 304.878 154.419C303.637 154.007 300.744 153.802 296.816 153.802L292.476 154.007Z" fill="#1B4F97"/>
<path fill-rule="evenodd" clip-rule="evenodd" d="M128.152 84.3037C136.42 91.706 141.794 102.192 141.794 113.913C141.794 117.819 141.174 121.315 140.141 124.81C146.548 120.904 154.196 118.642 162.464 118.642C169.905 118.642 176.726 120.492 182.927 123.577C181.893 120.081 181.273 116.38 181.273 112.679C181.273 101.576 186.027 91.5003 193.882 84.0981C179 81.8363 166.598 72.1722 161.224 59.0127C155.85 72.3779 143.241 82.2475 128.152 84.3037Z" fill="white"/>
<path fill-rule="evenodd" clip-rule="evenodd" d="M116.164 80.3964C127.532 90.4716 134.767 104.865 134.767 120.903C134.767 126.044 133.94 131.184 132.493 135.913C141.588 130.567 152.129 127.483 163.291 127.483C173.419 127.483 182.927 129.95 191.195 134.268C189.748 129.539 189.128 124.604 189.128 119.258C189.128 104.042 195.742 90.0604 206.284 80.1907C185.821 77.1065 168.872 63.7413 161.431 45.8525C153.99 63.9469 136.834 77.3121 116.164 80.3964Z" fill="#1B4F97"/>
<path fill-rule="evenodd" clip-rule="evenodd" d="M128.152 84.0977C136.627 91.4999 141.794 101.986 141.794 113.707C141.794 117.613 141.174 121.315 140.141 124.81C146.755 120.903 154.403 118.641 162.671 118.641C170.112 118.641 177.139 120.492 183.134 123.576C182.1 120.081 181.48 116.38 181.48 112.679C181.48 101.37 186.234 91.2943 194.089 83.892C179 81.6302 166.598 71.9662 161.224 58.8066C155.85 72.1718 143.448 81.8359 128.152 84.0977Z" fill="white"/>
<path fill-rule="evenodd" clip-rule="evenodd" d="M138.9 86.5653C144.688 91.5001 148.202 98.6968 148.202 106.716C148.202 109.389 147.788 111.856 147.168 114.118C151.509 111.445 156.883 110.006 162.464 110.006C167.425 110.006 172.179 111.239 176.313 113.501C175.692 111.239 175.279 108.566 175.279 106.099C175.279 98.4912 178.586 91.5001 183.754 86.5653C173.625 85.126 165.151 78.3406 161.43 69.499C157.71 78.5462 149.029 85.126 138.9 86.5653Z" fill="#48A8E0"/>
</g>
<defs>
<clipPath id="clip0">
<rect width="321" height="183" fill="white"/>
</clipPath>
</defs>
</svg>
