<svg width="144" height="31" viewBox="0 0 144 31" fill="none" xmlns="http://www.w3.org/2000/svg">
<path fill-rule="evenodd" clip-rule="evenodd" d="M50.2451 20.6765V9.70801H44.8831L39.6443 17.8061V9.70801H35.7207V20.6765H40.4393L46.3343 11.8298V20.6765H50.2451Z" fill="#1B4F97"/>
<path fill-rule="evenodd" clip-rule="evenodd" d="M51.1855 20.5496V18.964C52.4699 19.3152 53.6591 19.4906 54.7537 19.4906C55.691 19.4906 56.4987 19.3195 57.1757 18.9784C57.8526 18.6372 58.1911 18.2084 58.1911 17.6893C58.1911 17.3088 58.0046 16.9608 57.6311 16.6441C57.2665 16.3279 56.6974 16.0882 55.9254 15.9251C55.1527 15.762 54.3233 15.6807 53.438 15.6807H52.9433V14.2136H53.2558C54.8095 14.2136 55.9732 14.0308 56.7458 13.6647C57.5269 13.2943 57.918 12.8347 57.918 12.2868C57.918 11.8665 57.6964 11.5302 57.2538 11.2788C56.8196 11.0217 56.1076 10.8931 55.1177 10.8931C54.0672 10.8931 52.8301 11.0663 51.4066 11.4117V9.84785C52.4656 9.63583 53.3073 9.51469 53.9333 9.48493C54.5666 9.45039 55.1915 9.43339 55.8079 9.43286C57.1629 9.43286 58.2517 9.55134 59.0769 9.78833C59.9101 10.0211 60.5653 10.3372 61.043 10.7374C61.5207 11.1327 61.7593 11.5923 61.7598 12.1157C61.7598 12.6694 61.4643 13.1833 60.874 13.6578C60.2836 14.127 59.1763 14.5021 57.5529 14.7843C59.3761 15.0755 60.6349 15.4931 61.3299 16.0367C62.0329 16.5798 62.3841 17.1505 62.3841 17.7482C62.3841 18.3269 62.0887 18.8599 61.4989 19.3493C60.9085 19.8339 60.0493 20.2212 58.9201 20.513C57.7915 20.8041 56.5417 20.9497 55.1703 20.9497C54.7707 20.9497 54.3233 20.9354 53.8286 20.9056C53.3424 20.8764 52.921 20.8387 52.5655 20.7946C52.209 20.7547 51.7488 20.674 51.1855 20.5496Z" fill="#1B4F97"/>
<path fill-rule="evenodd" clip-rule="evenodd" d="M70.3737 20.9497C67.8125 20.9497 65.8852 20.4317 64.5919 19.3939C63.3065 18.3508 62.6641 16.9507 62.6641 15.1913C62.6641 13.433 63.3065 12.0344 64.5919 10.9967C65.8767 9.95466 67.804 9.43339 70.3737 9.43286C72.9434 9.43286 74.8707 9.95466 76.1561 10.9967C77.4404 12.0344 78.0823 13.433 78.0828 15.1913C78.0828 16.9507 77.4361 18.3508 76.1428 19.3939C74.8579 20.4317 72.9349 20.9497 70.3737 20.9497ZM70.3737 19.4906C71.0592 19.4906 71.667 19.3546 72.1968 19.0825C72.7266 18.8057 73.1432 18.3806 73.4471 17.8083C73.7596 17.2349 73.9158 16.3646 73.9158 15.1993C73.9158 14.0281 73.7681 13.1609 73.4732 12.5977C73.1868 12.0344 72.7744 11.6099 72.2361 11.3229C71.6973 11.0365 71.0767 10.8931 70.3737 10.8931C69.6792 10.8931 69.0628 11.0365 68.5245 11.3229C67.9948 11.6046 67.5824 12.0297 67.2875 12.5977C66.9921 13.1663 66.8449 14.0334 66.8449 15.1993C66.8449 16.3704 66.9921 17.2419 67.2875 17.8152C67.5914 18.3838 68.0075 18.8057 68.5373 19.0825C69.0756 19.3546 69.6877 19.4906 70.3737 19.4906Z" fill="#1B4F97"/>
<path fill-rule="evenodd" clip-rule="evenodd" d="M86.4012 9.70581L90.6649 17.9999L88.042 20.6754L83.7836 12.4402L79.0954 20.6754H76.3477L82.5461 9.70581H86.4012Z" fill="#1B4F97"/>
<path fill-rule="evenodd" clip-rule="evenodd" d="M99.5977 20.6765V11.1677H98.3607C97.0588 11.1677 96.2288 11.2219 95.8734 11.3308C95.5179 11.4397 95.249 11.6103 95.0657 11.842C94.8834 12.0694 94.7926 12.3192 94.7926 12.5912C94.7926 12.986 94.9578 13.359 95.2873 13.7097C95.6172 14.0562 96.0997 14.3128 96.7331 14.4802C97.1603 14.5955 97.6311 14.6715 98.1439 14.7077V16.2146L93.386 20.6765H89.3359L94.2713 15.6588C93.386 15.383 92.7133 15.0855 92.2531 14.7693C91.7839 14.4537 91.4157 14.0982 91.1463 13.7023C90.8769 13.3075 90.743 12.8967 90.743 12.4717C90.743 11.6767 91.1851 11.0168 92.0704 10.4939C92.9567 9.96997 94.3106 9.70801 96.1337 9.70801H103.452V20.6765H99.5977Z" fill="#1B4F97"/>
<path fill-rule="evenodd" clip-rule="evenodd" d="M107.886 20.6765V11.1677H104.193V9.70801H115.434V11.1677H111.741V20.6765H107.886Z" fill="#1B4F97"/>
<path fill-rule="evenodd" clip-rule="evenodd" d="M122.086 20.9497C119.525 20.9497 117.598 20.4317 116.305 19.3939C115.019 18.3508 114.377 16.9507 114.377 15.1913C114.377 13.433 115.019 12.0344 116.305 10.9967C117.589 9.95466 119.516 9.43339 122.086 9.43286C124.656 9.43286 126.584 9.95466 127.868 10.9967C129.153 12.0344 129.796 13.433 129.796 15.1913C129.796 16.9507 129.148 18.3508 127.855 19.3939C126.57 20.4317 124.648 20.9497 122.086 20.9497ZM122.086 19.4906C122.772 19.4906 123.38 19.3546 123.91 19.0825C124.439 18.8057 124.856 18.3806 125.159 17.8083C125.472 17.2349 125.629 16.3646 125.629 15.1993C125.629 14.0281 125.48 13.1609 125.186 12.5977C124.899 12.0344 124.487 11.6099 123.949 11.3229C123.41 11.0365 122.79 10.8931 122.086 10.8931C121.392 10.8931 120.775 11.0365 120.237 11.3229C119.707 11.6046 119.295 12.0297 119 12.5977C118.705 13.1663 118.558 14.0334 118.558 15.1993C118.558 16.3704 118.705 17.2419 119 17.8152C119.304 18.3838 119.72 18.8057 120.251 19.0825C120.788 19.3546 121.4 19.4906 122.086 19.4906Z" fill="#1B4F97"/>
<path fill-rule="evenodd" clip-rule="evenodd" d="M134.429 11.0881V20.5965H130.574V9.62793H138.036C140.145 9.62793 141.664 9.8798 142.593 10.3841C143.532 10.8878 144 11.6163 144 12.5701C144 13.3114 143.727 13.9512 143.179 14.49C142.642 15.0282 141.812 15.4555 140.692 15.7716C139.572 16.083 137.979 16.2387 135.913 16.2387L135.884 14.7695C136.551 14.7461 137.172 14.6749 137.75 14.5564C138.479 14.4034 139.012 14.1414 139.351 13.7705C139.689 13.3953 139.859 13 139.859 12.585C139.859 12.3028 139.759 12.0462 139.559 11.814C139.368 11.577 139.047 11.3969 138.596 11.2725C138.144 11.1492 137.233 11.0887 135.861 11.0881H134.429Z" fill="#1B4F97"/>
<path fill-rule="evenodd" clip-rule="evenodd" d="M0 11.6141C3.84987 15.0112 6.26175 19.8812 6.26175 25.2905C6.26175 27.0536 6.0051 28.7593 5.52687 30.3757C8.51263 28.5818 12.0446 27.544 15.8301 27.544C19.2367 27.544 22.4393 28.3847 25.2221 29.8613C24.7507 28.2566 24.4994 26.5647 24.4994 24.8165C24.4994 19.6426 26.7051 14.9639 30.2642 11.5934C23.3697 10.5604 17.6772 6.05335 15.2026 0C12.711 6.0948 6.95785 10.6221 0 11.6141Z" fill="#00529C"/>
<path fill-rule="evenodd" clip-rule="evenodd" d="M4.03125 12.5648C6.85548 15.058 8.62494 18.6304 8.62494 22.5981C8.62494 23.892 8.43683 25.1439 8.0856 26.3294C10.2764 25.0127 12.8674 24.2523 15.6443 24.2523C18.1439 24.2523 20.4931 24.8687 22.5346 25.9516C22.1887 24.7746 22.0037 23.5328 22.0037 22.2501C22.0037 18.4561 23.6218 15.0229 26.2334 12.55C21.1753 11.7928 16.9993 8.48606 15.1836 4.04541C13.3562 8.51582 9.13558 11.8379 4.03125 12.5648Z" fill="white"/>
<path fill-rule="evenodd" clip-rule="evenodd" d="M7.5957 13.4073C9.51341 15.1002 10.7148 17.5254 10.7148 20.22C10.7148 21.0983 10.5873 21.948 10.3487 22.753C11.836 21.8592 13.5954 21.3428 15.4812 21.3428C17.1779 21.3428 18.773 21.7615 20.1594 22.4969C19.9245 21.6977 19.7991 20.8549 19.7991 19.9835C19.7991 17.4069 20.8975 15.0763 22.6712 13.3972C19.2364 12.8834 16.401 10.6373 15.1682 7.6228C13.9275 10.658 11.0618 12.9136 7.5957 13.4073Z" fill="#62C1E9"/>
</svg>
