<svg
  width="16"
  height="16"
  viewBox="0 0 16 16"
  fill="none"
  xmlns="http://www.w3.org/2000/svg"
  class="_icon-hammer">
  <path
    class="_icon-hammer__layer1"
    d="M14.9187 11.8474L8.03549 4.99174L10.2811 2.75475C10.3331 2.70295 10.3623 2.63254 10.3623 2.55918C10.3623 2.48581 10.3331 2.41559 10.2811 2.36361L8.99283 1.08106C8.93121 1.01968 8.84349 0.990552 8.7578 1.00272L6.55181 1.31202C6.49222 1.32031 6.43688 1.34778 6.39413 1.39036L5.40699 2.37356L4.59714 1.56731C4.48869 1.4593 4.31306 1.4593 4.20461 1.56731L2.51773 3.24801C2.40928 3.35602 2.40928 3.53095 2.51773 3.63897L3.32721 4.44503L1.08124 6.68202C1.02924 6.73382 1 6.80423 1 6.8776C1 6.95096 1.02924 7.02119 1.08124 7.07317L3.31759 9.30021C3.37181 9.35422 3.44288 9.38113 3.51394 9.38113C3.58501 9.38113 3.65607 9.35422 3.7103 9.30021L5.95534 7.06377L12.8385 13.9191C12.8927 13.9731 12.9638 14 13.0349 14C13.1059 14 13.177 13.9731 13.2312 13.9191L14.9187 12.2384C15.0271 12.1304 15.0271 11.9554 14.9187 11.8474ZM3.1068 3.44358L4.40115 2.15384L5.01465 2.7647L3.71992 4.05426L3.1068 3.44358ZM3.51413 8.71368L1.67031 6.8776L6.72133 1.84675L8.69839 1.56971L9.69239 2.55918L7.44772 4.79525L7.44605 4.79673L3.51413 8.71368ZM13.0349 13.3327L6.34787 6.67281L7.64296 5.3827L14.3298 12.043L13.0349 13.3327Z"
    fill="#595E64"/>
  <path
    class="_icon-hammer__layer2"
    fill-rule="evenodd"
    clip-rule="evenodd"
    d="M9.16926 0.902344L10.4575 2.18485C10.5561 2.28344 10.6123 2.4175 10.6123 2.55759C10.6123 2.69742 10.5566 2.83157 10.4575 2.93028L8.38973 4.99014L15.0951 11.6687C15.3016 11.8744 15.3016 12.2082 15.0951 12.4139L13.4076 14.0946C13.3044 14.1974 13.169 14.2484 13.0349 14.2484C12.9007 14.2484 12.7653 14.1974 12.6621 14.0946L5.95536 7.41504L3.88674 9.47574C3.78353 9.57853 3.64808 9.62954 3.51394 9.62954C3.37982 9.62954 3.24438 9.57855 3.14118 9.47577L0.904836 7.24873C0.806214 7.15015 0.75 7.01611 0.75 6.87601C0.75 6.73617 0.805717 6.60202 0.904822 6.50331L2.97293 4.44347L2.34133 3.81453C2.13478 3.60881 2.13476 3.27502 2.34131 3.06929L4.02816 1.38863C4.23414 1.18347 4.56752 1.18342 4.77352 1.38856L5.40695 2.01917L6.21771 1.21164C6.29882 1.13086 6.40392 1.07863 6.51724 1.06284M8.81641 1.2566C8.8103 1.25052 8.80089 1.24752 8.79294 1.24865L6.58652 1.55801C6.5807 1.55883 6.57492 1.56156 6.57056 1.56591L5.40703 2.72478L4.42076 1.7429C4.40986 1.73204 4.39193 1.732 4.38103 1.74286L2.69418 3.42353C2.68384 3.43383 2.68381 3.44995 2.69415 3.46025L3.68149 4.44343L1.25767 6.85757C1.25276 6.86245 1.25 6.86913 1.25 6.87601C1.25 6.88262 1.25258 6.88933 1.25792 6.8947L3.494 9.12148C3.49924 9.1267 3.50594 9.12954 3.51394 9.12954C3.52193 9.12954 3.52862 9.12672 3.53386 9.12151L5.95532 6.70932L13.0149 13.7404C13.0202 13.7456 13.0269 13.7484 13.0349 13.7484C13.0429 13.7484 13.0496 13.7456 13.0548 13.7404L14.7422 12.0597C14.7526 12.0494 14.7526 12.0333 14.7422 12.023L7.68124 4.99017L10.1046 2.57605C10.1095 2.57117 10.1123 2.56448 10.1123 2.55759C10.1123 2.55098 10.1097 2.54427 10.1044 2.53889L8.81641 1.2566ZM8.78673 1.3033L10.0467 2.55753L7.61893 4.97599L7.61727 4.97746L3.51416 9.06494L1.31603 6.87603L6.60402 1.60917L8.78673 1.3033ZM6.83864 2.08117L2.02459 6.87599L3.51409 8.35925L7.27484 4.61282L7.2765 4.61135L9.33809 2.55766L8.61006 1.83295L6.83864 2.08117ZM4.40109 1.7994L5.36894 2.76309L3.71992 4.40552L2.75257 3.44203L4.40109 1.7994ZM4.40122 2.50512L3.46102 3.44196L3.71992 3.69982L4.66036 2.76315L4.40122 2.50512ZM7.64295 5.02825L14.684 12.0414L13.0349 13.684L5.99361 6.67124L7.64295 5.02825ZM7.64297 5.73398L6.70212 6.67121L13.0349 12.9783L13.9755 12.0414L7.64297 5.73398Z"
    fill="#595E64"/>
</svg>
