<svg width="24" height="24" viewBox="0 0 24 24" fill="none" xmlns="http://www.w3.org/2000/svg">
<path d="M16 8.5V5C16 3.89543 15.1046 3 14 3H6C4.89543 3 4 3.89543 4 5V20C4 21.1046 4.89543 22 6 22H14C15.1046 22 16 21.1046 16 20V16.5" stroke="#1B4F97"/>
<path d="M23.4942 13.3536C23.6894 13.1583 23.6894 12.8417 23.4942 12.6464L20.3122 9.46447C20.1169 9.2692 19.8004 9.2692 19.6051 9.46447C19.4098 9.65973 19.4098 9.97631 19.6051 10.1716L22.4335 13L19.6051 15.8284C19.4098 16.0237 19.4098 16.3403 19.6051 16.5355C19.8004 16.7308 20.1169 16.7308 20.3122 16.5355L23.4942 13.3536ZM9.14062 13.5H23.1406V12.5H9.14062V13.5Z" fill="white"/>
<path d="M22.3536 12.3536C22.5488 12.1583 22.5488 11.8417 22.3536 11.6464L19.1716 8.46447C18.9763 8.2692 18.6597 8.2692 18.4645 8.46447C18.2692 8.65973 18.2692 8.97631 18.4645 9.17157L21.2929 12L18.4645 14.8284C18.2692 15.0237 18.2692 15.3403 18.4645 15.5355C18.6597 15.7308 18.9763 15.7308 19.1716 15.5355L22.3536 12.3536ZM11 12.5L22 12.5L22 11.5L11 11.5L11 12.5Z" fill="#1B4F97"/>
</svg>
