<svg width="14" height="14" viewBox="0 0 14 14" fill="none" xmlns="http://www.w3.org/2000/svg">
<path d="M5.7737 2.474C6.17522 2.38001 6.58632 2.33303 6.9987 2.334C11.082 2.334 13.4154 7.00067 13.4154 7.00067C13.0613 7.6631 12.639 8.28676 12.1554 8.8615M8.23536 8.23733C8.07515 8.40927 7.88195 8.54717 7.66729 8.64282C7.45262 8.73847 7.22089 8.7899 6.98592 8.79405C6.75094 8.79819 6.51754 8.75497 6.29964 8.66695C6.08173 8.57894 5.88379 8.44793 5.71761 8.28175C5.55143 8.11558 5.42043 7.91763 5.33241 7.69973C5.2444 7.48182 5.20117 7.24842 5.20532 7.01345C5.20946 6.77847 5.26089 6.54674 5.35654 6.33208C5.45219 6.11741 5.5901 5.92421 5.76203 5.764M10.4637 10.4657C9.46654 11.2258 8.25234 11.6468 6.9987 11.6673C2.91536 11.6673 0.582031 7.00067 0.582031 7.00067C1.30763 5.64844 2.31403 4.46702 3.5337 3.53567L10.4637 10.4657Z" stroke="#9BA1B5" stroke-linejoin="round"/>
<path d="M0.582031 0.583984L13.4154 13.4173" stroke="#9BA1B5" stroke-linejoin="round"/>
</svg>
